<svg viewBox="0 0 200 200" xmlns="http://www.w3.org/2000/svg">
    <path d="M100,100 L100.00,2.00 A98,98,0,0,1,142.52,11.71 Z" fill="#1a6b3a" stroke="#aaa" stroke-width="0.6"/>
    <text transform="translate(114.6,36.0) rotate(-77.1)" text-anchor="middle" dominant-baseline="middle"
          font-family="'Bebas Neue',sans-serif" font-size="11" fill="#fff">0
    </text>
    <path d="M100,100 L142.52,11.71 A98,98,0,0,1,176.62,38.90 Z" fill="#f5f0e8" stroke="#aaa" stroke-width="0.6"/>
    <text transform="translate(140.9,48.7) rotate(-51.4)" text-anchor="middle" dominant-baseline="middle"
          font-family="'Bebas Neue',sans-serif" font-size="11" fill="#c0392b">1
    </text>
    <path d="M100,100 L176.62,38.90 A98,98,0,0,1,195.54,78.19 Z" fill="#c0392b" stroke="#aaa" stroke-width="0.6"/>
    <text transform="translate(159.2,71.5) rotate(-25.7)" text-anchor="middle" dominant-baseline="middle"
          font-family="'Bebas Neue',sans-serif" font-size="11" fill="#fff">2
    </text>
    <path d="M100,100 L195.54,78.19 A98,98,0,0,1,195.54,121.81 Z" fill="#f5f0e8" stroke="#aaa" stroke-width="0.6"/>
    <text transform="translate(165.7,100.0) rotate(-0.0)" text-anchor="middle" dominant-baseline="middle"
          font-family="'Bebas Neue',sans-serif" font-size="11" fill="#c0392b">3
    </text>
    <path d="M100,100 L195.54,121.81 A98,98,0,0,1,176.62,161.10 Z" fill="#c0392b" stroke="#aaa" stroke-width="0.6"/>
    <text transform="translate(159.2,128.5) rotate(25.7)" text-anchor="middle" dominant-baseline="middle"
          font-family="'Bebas Neue',sans-serif" font-size="11" fill="#fff">4
    </text>
    <path d="M100,100 L176.62,161.10 A98,98,0,0,1,142.52,188.29 Z" fill="#f5f0e8" stroke="#aaa" stroke-width="0.6"/>
    <text transform="translate(140.9,151.3) rotate(51.4)" text-anchor="middle" dominant-baseline="middle"
          font-family="'Bebas Neue',sans-serif" font-size="11" fill="#c0392b">5
    </text>
    <path d="M100,100 L142.52,188.29 A98,98,0,0,1,100.00,198.00 Z" fill="#c0392b" stroke="#aaa" stroke-width="0.6"/>
    <text transform="translate(114.6,164.0) rotate(77.1)" text-anchor="middle" dominant-baseline="middle"
          font-family="'Bebas Neue',sans-serif" font-size="11" fill="#fff">6
    </text>
    <path d="M100,100 L100.00,198.00 A98,98,0,0,1,57.48,188.29 Z" fill="#f5f0e8" stroke="#aaa" stroke-width="0.6"/>
    <text transform="translate(85.4,164.0) rotate(102.9)" text-anchor="middle" dominant-baseline="middle"
          font-family="'Bebas Neue',sans-serif" font-size="11" fill="#c0392b">7
    </text>
    <path d="M100,100 L57.48,188.29 A98,98,0,0,1,23.38,161.10 Z" fill="#c0392b" stroke="#aaa" stroke-width="0.6"/>
    <text transform="translate(59.1,151.3) rotate(128.6)" text-anchor="middle" dominant-baseline="middle"
          font-family="'Bebas Neue',sans-serif" font-size="11" fill="#fff">8
    </text>
    <path d="M100,100 L23.38,161.10 A98,98,0,0,1,4.46,121.81 Z" fill="#f5f0e8" stroke="#aaa" stroke-width="0.6"/>
    <text transform="translate(40.8,128.5) rotate(154.3)" text-anchor="middle" dominant-baseline="middle"
          font-family="'Bebas Neue',sans-serif" font-size="11" fill="#c0392b">9
    </text>
    <path d="M100,100 L4.46,121.81 A98,98,0,0,1,4.46,78.19 Z" fill="#c0392b" stroke="#aaa" stroke-width="0.6"/>
    <text transform="translate(34.3,100.0) rotate(180.0)" text-anchor="middle" dominant-baseline="middle"
          font-family="'Bebas Neue',sans-serif" font-size="11" fill="#fff">10
    </text>
    <path d="M100,100 L4.46,78.19 A98,98,0,0,1,23.38,38.90 Z" fill="#f5f0e8" stroke="#aaa" stroke-width="0.6"/>
    <text transform="translate(40.8,71.5) rotate(205.7)" text-anchor="middle" dominant-baseline="middle"
          font-family="'Bebas Neue',sans-serif" font-size="11" fill="#c0392b">11
    </text>
    <path d="M100,100 L23.38,38.90 A98,98,0,0,1,57.48,11.71 Z" fill="#c0392b" stroke="#aaa" stroke-width="0.6"/>
    <text transform="translate(59.1,48.7) rotate(231.4)" text-anchor="middle" dominant-baseline="middle"
          font-family="'Bebas Neue',sans-serif" font-size="11" fill="#fff">12
    </text>
    <path d="M100,100 L57.48,11.71 A98,98,0,0,1,100.00,2.00 Z" fill="#f5f0e8" stroke="#aaa" stroke-width="0.6"/>
    <text transform="translate(85.4,36.0) rotate(257.1)" text-anchor="middle" dominant-baseline="middle"
          font-family="'Bebas Neue',sans-serif" font-size="11" fill="#c0392b">13
    </text>
    <circle cx="100" cy="100" r="98" fill="none" stroke="#c0392b" stroke-width="2"/>
    <circle cx="100" cy="100" r="14" fill="#f5f0e8" stroke="#c0392b" stroke-width="2.5"/>
</svg>